<?xml version="1.0" encoding="UTF-8" standalone="no"?>
<!DOCTYPE svg PUBLIC "-//W3C//DTD SVG 1.1//EN" "http://www.w3.org/Graphics/SVG/1.1/DTD/svg11.dtd">
<svg width="100%" height="100%" viewBox="0 0 32 32" version="1.1" xmlns="http://www.w3.org/2000/svg" xmlns:xlink="http://www.w3.org/1999/xlink" xml:space="preserve" xmlns:serif="http://www.serif.com/" style="fill-rule:evenodd;clip-rule:evenodd;stroke-linejoin:round;stroke-miterlimit:2;">
    <g transform="matrix(1,0,0,1,-181.602,-16.0117)">
        <g id="left" transform="matrix(0.441273,0,0,0.441273,259.859,-11.2009)">
            <rect x="-177.344" y="61.668" width="72.517" height="72.517" style="fill:none;"/>
            <g transform="matrix(4.0992,1.82948e-16,-1.13322e-15,-9.9636,-394.191,382.926)">
                <path d="M63.773,31.171C64.211,31.346 64.911,31.342 65.337,31.162C65.762,30.982 65.753,30.694 65.315,30.518L60.532,28.604L65.315,26.689C65.753,26.514 65.762,26.226 65.337,26.046C64.911,25.866 64.211,25.862 63.773,26.037L58.175,28.278C57.961,28.364 57.841,28.481 57.841,28.604C57.841,28.727 57.961,28.844 58.175,28.93L63.773,31.171Z" style="fill:rgb(54,22,22);"/>
            </g>
        </g>
    </g>
</svg>
