<?xml version="1.0" encoding="UTF-8" standalone="no"?>
<!DOCTYPE svg PUBLIC "-//W3C//DTD SVG 1.1//EN" "http://www.w3.org/Graphics/SVG/1.1/DTD/svg11.dtd">
<svg width="100%" height="100%" viewBox="0 0 32 32" version="1.1" xmlns="http://www.w3.org/2000/svg" xmlns:xlink="http://www.w3.org/1999/xlink" xml:space="preserve" xmlns:serif="http://www.serif.com/" style="fill-rule:evenodd;clip-rule:evenodd;stroke-linejoin:round;stroke-miterlimit:2;">
    <g transform="matrix(1,0,0,1,-67.5029,-16.0119)">
        <g id="merge" transform="matrix(0.441273,0,0,0.441273,145.76,-11.2007)">
            <rect x="-177.344" y="61.668" width="72.517" height="72.517" style="fill:none;"/>
            <g transform="matrix(-4.94948e-15,-3.13293,3.95326,-5.96899e-15,-242.939,295.846)">
                <path d="M57.217,30.135L62.089,30.135L62.089,26.854C62.089,26.38 62.575,25.994 63.174,25.994C63.773,25.994 64.259,26.38 64.259,26.854L64.259,30.995C64.259,31.47 63.773,31.854 63.174,31.854L57.217,31.854L58.168,32.64C58.582,32.982 58.568,33.527 58.136,33.856C57.704,34.184 57.016,34.173 56.602,33.83L53.89,31.59C53.487,31.257 53.487,30.732 53.89,30.399L56.602,28.159C57.016,27.816 57.704,27.805 58.136,28.134C58.568,28.462 58.582,29.007 58.168,29.349L57.217,30.135ZM67.043,32.658C66.444,32.658 65.958,32.273 65.958,31.798C65.958,31.324 66.444,30.939 67.043,30.939L70.566,30.939L70.566,20.59L55.031,20.59L55.031,25.24C55.031,25.714 54.545,26.1 53.946,26.1C53.347,26.1 52.861,25.714 52.861,25.24L52.861,19.73C52.861,19.256 53.347,18.871 53.946,18.871L71.651,18.871C72.25,18.871 72.736,19.256 72.736,19.73L72.736,31.798C72.736,32.273 72.25,32.658 71.651,32.658L67.043,32.658Z" style="fill:rgb(54,22,22);"/>
            </g>
        </g>
    </g>
</svg>
