<?xml version="1.0" encoding="UTF-8" standalone="no"?>
<!DOCTYPE svg PUBLIC "-//W3C//DTD SVG 1.1//EN" "http://www.w3.org/Graphics/SVG/1.1/DTD/svg11.dtd">
<svg width="100%" height="100%" viewBox="0 0 32 32" version="1.1" xmlns="http://www.w3.org/2000/svg" xmlns:xlink="http://www.w3.org/1999/xlink" xml:space="preserve" xmlns:serif="http://www.serif.com/" style="fill-rule:evenodd;clip-rule:evenodd;stroke-linejoin:round;stroke-miterlimit:2;">
    <g transform="matrix(1,0,0,1,-35.3299,-57.5642)">
        <g id="close" transform="matrix(0.441273,0,0,0.441273,113.587,30.3516)">
            <rect x="-177.344" y="61.668" width="72.517" height="72.517" style="fill:none;"/>
            <g transform="matrix(8.63674e-16,3.61905,8.79655,-3.49235e-15,-392.701,-115.896)">
                <path d="M59.083,27.915L54.392,26.037C53.955,25.862 53.254,25.866 52.828,26.046C52.403,26.226 52.413,26.514 52.85,26.689L57.633,28.604L52.85,30.518C52.413,30.694 52.403,30.982 52.828,31.162C53.254,31.342 53.955,31.346 54.392,31.171L59.083,29.293L63.773,31.171C64.211,31.346 64.911,31.342 65.337,31.162C65.762,30.982 65.753,30.694 65.315,30.518L60.532,28.604L65.315,26.689C65.753,26.514 65.762,26.226 65.337,26.046C64.911,25.866 64.211,25.862 63.773,26.037L59.083,27.915Z" style="fill:rgb(54,22,22);"/>
            </g>
        </g>
    </g>
</svg>
