<?xml version="1.0" encoding="UTF-8" standalone="no"?><!DOCTYPE svg PUBLIC "-//W3C//DTD SVG 1.1//EN" "http://www.w3.org/Graphics/SVG/1.1/DTD/svg11.dtd"><svg width="100%" height="100%" viewBox="0 0 32 32" version="1.1" xmlns="http://www.w3.org/2000/svg" xmlns:xlink="http://www.w3.org/1999/xlink" xml:space="preserve" xmlns:serif="http://www.serif.com/" style="fill-rule:evenodd;clip-rule:evenodd;stroke-linejoin:round;stroke-miterlimit:2;"><rect id="dark-mode" x="0" y="0" width="32" height="32" style="fill:none;"/><path d="M25.96,20.665c0.801,-0.131 1.602,0.236 2.023,0.93c0.422,0.693 0.379,1.574 -0.106,2.224c-2.403,3.309 -6.306,5.45 -10.705,5.45c-7.339,-0 -13.299,-5.959 -13.299,-13.299c0,-5.048 2.819,-9.443 6.968,-11.696c0.717,-0.401 1.607,-0.323 2.244,0.195c0.637,0.519 0.894,1.374 0.647,2.158c-0.376,1.035 -0.557,2.151 -0.557,3.309c-0,6.012 4.881,10.893 10.893,10.893c0.646,0 1.278,-0.056 1.892,-0.164Z" style="fill:#361616;"/></svg>