<?xml version="1.0" encoding="UTF-8" standalone="no"?>
<!DOCTYPE svg PUBLIC "-//W3C//DTD SVG 1.1//EN" "http://www.w3.org/Graphics/SVG/1.1/DTD/svg11.dtd">
<svg width="100%" height="100%" viewBox="0 0 32 32" version="1.1" xmlns="http://www.w3.org/2000/svg" xmlns:xlink="http://www.w3.org/1999/xlink" xml:space="preserve" xmlns:serif="http://www.serif.com/" style="fill-rule:evenodd;clip-rule:evenodd;stroke-linejoin:round;stroke-miterlimit:2;">
    <g transform="matrix(1,0,0,1,-106.224,-95.1588)">
        <g id="zoom-out" serif:id="zoom out" transform="matrix(0.441273,0,0,0.441273,184.481,67.9462)">
            <rect x="-177.344" y="61.668" width="72.517" height="72.517" style="fill:none;"/>
            <g transform="matrix(6.62056e-17,-2.26617,0.933564,1.19813e-16,-247.104,297.475)">
                <path d="M78.895,130.955C79.069,130.532 79.09,129.865 78.945,129.382C77.459,124.435 76.582,118.343 76.582,111.758C76.582,95.222 82.113,81.797 88.924,81.797C95.736,81.797 101.267,95.222 101.267,111.758C101.267,128.293 95.736,141.718 88.924,141.718C86.212,141.718 83.702,139.589 81.664,135.982C81.465,135.63 81.19,135.681 81.016,136.104L77.143,145.506C76.557,146.927 75.607,146.927 75.022,145.506C74.436,144.085 74.436,141.778 75.022,140.357L78.895,130.955ZM98.267,111.758C98.267,99.241 94.081,89.08 88.924,89.08C83.768,89.08 79.582,99.241 79.582,111.758C79.582,124.274 83.768,134.436 88.924,134.436C94.081,134.436 98.267,124.274 98.267,111.758ZM90.424,122.681C90.424,124.691 89.752,126.322 88.924,126.322C88.097,126.322 87.424,124.691 87.424,122.681L87.424,100.834C87.424,98.825 88.097,97.193 88.924,97.193C89.752,97.193 90.424,98.825 90.424,100.834L90.424,122.681Z" style="fill:rgb(54,22,22);"/>
            </g>
        </g>
    </g>
</svg>
