<?xml version="1.0" encoding="UTF-8" standalone="no"?>
<!DOCTYPE svg PUBLIC "-//W3C//DTD SVG 1.1//EN" "http://www.w3.org/Graphics/SVG/1.1/DTD/svg11.dtd">
<svg width="100%" height="100%" viewBox="0 0 32 32" version="1.1" xmlns="http://www.w3.org/2000/svg" xmlns:xlink="http://www.w3.org/1999/xlink" xml:space="preserve" xmlns:serif="http://www.serif.com/" style="fill-rule:evenodd;clip-rule:evenodd;stroke-linejoin:round;stroke-miterlimit:2;">
    <g transform="matrix(1,0,0,1,-33.8695,-16.0119)">
        <g id="add-layer" transform="matrix(0.441273,0,0,0.441273,112.127,-11.2007)">
            <g>
                <rect x="-177.344" y="61.668" width="72.517" height="72.517" style="fill:none;"/>
                <g transform="matrix(2.01125,0,0,2.10901,-241.749,33.3367)">
                    <path d="M57.794,21.954L54.529,21.954C53.596,21.954 52.838,21.232 52.838,20.343C52.838,19.453 53.596,18.731 54.529,18.731L57.794,18.731L57.794,16.216C57.794,15.327 58.551,14.604 59.484,14.604C60.417,14.604 61.174,15.327 61.174,16.216L61.174,18.731L64.439,18.731C65.372,18.731 66.129,19.453 66.129,20.343C66.129,21.232 65.372,21.954 64.439,21.954L61.174,21.954L61.174,24.469C61.174,25.359 60.417,26.081 59.484,26.081C58.551,26.081 57.794,25.359 57.794,24.469L57.794,21.954ZM59.845,31.942C59.845,31.052 60.603,30.33 61.536,30.33C62.468,30.33 63.226,31.052 63.226,31.942L63.226,44.334C63.226,45.224 62.469,45.946 61.536,45.946L37.815,45.946C36.882,45.946 36.125,45.224 36.125,44.334L36.125,18.034C36.125,17.144 36.882,16.422 37.815,16.422L48.644,16.422C49.577,16.422 50.335,17.144 50.335,18.034C50.335,18.923 49.577,19.646 48.644,19.646L39.505,19.646L39.505,42.722L59.845,42.722L59.845,31.942Z" style="fill:rgb(54,22,22);"/>
                </g>
            </g>
        </g>
    </g>
</svg>
