<?xml version="1.0" encoding="UTF-8" standalone="no"?><!DOCTYPE svg PUBLIC "-//W3C//DTD SVG 1.1//EN" "http://www.w3.org/Graphics/SVG/1.1/DTD/svg11.dtd"><svg width="100%" height="100%" viewBox="0 0 32 32" version="1.1" xmlns="http://www.w3.org/2000/svg" xmlns:xlink="http://www.w3.org/1999/xlink" xml:space="preserve" xmlns:serif="http://www.serif.com/" style="fill-rule:evenodd;clip-rule:evenodd;stroke-linejoin:round;stroke-miterlimit:2;"><rect id="dark-mode" x="0" y="0" width="32" height="32" style="fill:none;"/><path d="M24.581,17.829c0.452,0 5.499,-0.416 5.798,2.804c0.448,4.82 -6.464,9.145 -11.977,9.056c-7.762,-0.125 -14.065,-6.302 -14.065,-14.065c0,-5.338 5.573,-14.18 10.939,-12.325c3.03,1.048 2.074,4.659 2.063,4.688c-0.253,0.697 -0.37,1.45 -0.37,2.23c0,1.71 0.565,3.288 1.518,4.559c1.389,1.853 3.602,3.053 6.094,3.053Zm0.802,4.604c0.053,-0.058 0.066,-0.141 0.033,-0.212c-0.034,-0.071 -0.106,-0.114 -0.185,-0.11c-0.215,0.01 -0.432,0.016 -0.65,0.016c-3.897,0 -7.36,-1.875 -9.533,-4.772c-1.492,-1.99 -2.377,-4.461 -2.377,-7.138c0,-0.756 0.071,-1.496 0.214,-2.212c0.018,-0.083 -0.017,-0.169 -0.089,-0.216c-0.071,-0.047 -0.164,-0.044 -0.233,0.006c-2.383,1.783 -3.928,4.627 -3.928,7.829c0,5.39 4.377,9.767 9.767,9.767c2.739,-0 5.217,-1.131 6.981,-2.958Z" style="fill:#361616;"/></svg>