<?xml version="1.0" encoding="UTF-8" standalone="no"?>
<!DOCTYPE svg PUBLIC "-//W3C//DTD SVG 1.1//EN" "http://www.w3.org/Graphics/SVG/1.1/DTD/svg11.dtd">
<svg width="100%" height="100%" viewBox="0 0 32 32" version="1.1" xmlns="http://www.w3.org/2000/svg" xmlns:xlink="http://www.w3.org/1999/xlink" xml:space="preserve" xmlns:serif="http://www.serif.com/" style="fill-rule:evenodd;clip-rule:evenodd;stroke-linejoin:round;stroke-miterlimit:2;">
    <g transform="matrix(1,0,0,1,-300.443,-95.1588)">
        <g id="brush" transform="matrix(0.441273,0,0,0.441273,378.7,67.9462)">
            <rect x="-177.344" y="61.668" width="72.517" height="72.517" style="fill:none;"/>
            <g transform="matrix(-0.705818,-0.705818,1.2693,-1.2693,-156.12,343.31)">
                <path d="M166.926,101.227L163.188,120.024C163.188,121.662 159.81,121.662 159.81,120.024L156.071,101.227L166.926,101.227Z" style="fill:rgb(54,22,22);"/>
            </g>
            <g transform="matrix(-0.705818,-0.705818,1.2693,-1.2693,-156.12,343.31)">
                <path d="M152.038,99.347L150.846,98.713L149.452,97.561L148.475,96.2C148.049,95.356 147.846,94.36 148.071,93.182C148.487,91.007 150.346,88.837 152.764,86.984C155.802,84.656 159.613,82.854 160.905,82.274C163.469,81.122 167.147,81.157 169.64,82.356C172.132,83.554 172.724,85.574 171.045,87.15C170.54,87.624 170.924,88.091 171.218,88.52C171.78,89.341 172.595,90.104 173.242,90.791C174.824,92.469 175.53,94.012 175.308,95.171C175.209,95.688 175.031,96.159 174.796,96.589L173.774,97.928L172.267,99.095L171.281,99.583C171.981,100.156 172.297,100.853 172.159,101.549L168.42,120.346L168.452,120.024L168.035,121.49L167.471,122.201L166.651,122.855L165.592,123.41L164.339,123.83L162.952,124.092L161.499,124.18L160.046,124.092L158.659,123.83L157.405,123.41L156.347,122.855L155.527,122.201L154.963,121.49L154.546,120.024L154.578,120.346L150.839,101.549C150.681,100.754 151.116,99.958 152.038,99.347ZM158.926,88.729C156.93,90.148 155.176,91.848 154.844,93.582C154.249,96.693 158.712,97.42 160.63,97.533C163.861,97.724 168.036,97.377 168.535,94.771C168.777,93.505 165.728,91.541 164.502,89.3L163.942,89.42C163.361,89.505 162.638,89.557 161.737,89.524L160.576,89.391L159.698,89.138L159.019,88.804L158.926,88.729Z" style="fill:rgb(54,22,22);"/>
            </g>
        </g>
    </g>
</svg>
