<?xml version="1.0" encoding="UTF-8" standalone="no"?>
<!DOCTYPE svg PUBLIC "-//W3C//DTD SVG 1.1//EN" "http://www.w3.org/Graphics/SVG/1.1/DTD/svg11.dtd">
<svg width="100%" height="100%" viewBox="0 0 32 32" version="1.1" xmlns="http://www.w3.org/2000/svg" xmlns:xlink="http://www.w3.org/1999/xlink" xml:space="preserve" xmlns:serif="http://www.serif.com/" style="fill-rule:evenodd;clip-rule:evenodd;stroke-linecap:round;stroke-linejoin:round;stroke-miterlimit:1.5;">
    <g transform="matrix(1,0,0,1,-144.5,-57.5642)">
        <g id="logo" transform="matrix(0.441273,0,0,0.441273,222.757,30.3516)">
            <rect x="-177.344" y="61.668" width="72.517" height="72.517" style="fill:none;"/>
            <g transform="matrix(2.26617,0,0,2.26617,-504.806,-68.7819)">
                <path d="M148.448,65.813C148.448,65.813 150.847,64.609 152.437,63.812C153.315,63.372 154.337,63.32 155.255,63.669C156.35,64.085 157.853,64.657 158.969,65.082C159.953,65.456 161.042,65.443 162.017,65.047C163.111,64.602 164.582,64.004 165.679,63.558C166.647,63.164 167.739,63.223 168.659,63.718C170.242,64.57 172.552,65.813 172.552,65.813" style="fill:none;stroke:rgb(255,200,209);stroke-width:4.12px;"/>
            </g>
            <g transform="matrix(2.26617,0,0,2.26617,-504.806,-55.456)">
                <path d="M148.448,65.813C148.448,65.813 150.847,64.609 152.437,63.812C153.315,63.372 154.337,63.32 155.255,63.669C156.35,64.085 157.853,64.657 158.969,65.082C159.953,65.456 161.042,65.443 162.017,65.047C163.111,64.602 164.582,64.004 165.679,63.558C166.647,63.164 167.739,63.223 168.659,63.718C170.242,64.57 172.552,65.813 172.552,65.813" style="fill:none;stroke:rgb(255,200,209);stroke-width:4.12px;"/>
            </g>
            <g transform="matrix(2.26617,0,0,2.26617,-504.806,-41.8612)">
                <path d="M148.448,65.813C148.448,65.813 150.847,64.609 152.437,63.812C153.315,63.372 154.337,63.32 155.255,63.669C156.35,64.085 157.853,64.657 158.969,65.082C159.953,65.456 161.042,65.443 162.017,65.047C163.111,64.602 164.582,64.004 165.679,63.558C166.647,63.164 167.739,63.223 168.659,63.718C170.242,64.57 172.552,65.813 172.552,65.813" style="fill:none;stroke:rgb(255,200,209);stroke-width:4.12px;"/>
            </g>
            <g transform="matrix(2.26617,0,0,2.26617,-504.806,-28.2135)">
                <path d="M148.448,65.813C148.448,65.813 150.847,64.609 152.437,63.812C153.315,63.372 154.337,63.32 155.255,63.669C156.35,64.085 157.853,64.657 158.969,65.082C159.953,65.456 161.042,65.443 162.017,65.047C163.111,64.602 164.582,64.004 165.679,63.558C166.647,63.164 167.739,63.223 168.659,63.718C170.242,64.57 172.552,65.813 172.552,65.813" style="fill:none;stroke:rgb(255,200,209);stroke-width:4.12px;"/>
            </g>
        </g>
    </g>
</svg>
