<?xml version="1.0" encoding="UTF-8" standalone="no"?>
<!DOCTYPE svg PUBLIC "-//W3C//DTD SVG 1.1//EN" "http://www.w3.org/Graphics/SVG/1.1/DTD/svg11.dtd">
<svg width="100%" height="100%" viewBox="0 0 32 32" version="1.1" xmlns="http://www.w3.org/2000/svg" xmlns:xlink="http://www.w3.org/1999/xlink" xml:space="preserve" xmlns:serif="http://www.serif.com/" style="fill-rule:evenodd;clip-rule:evenodd;stroke-linejoin:round;stroke-miterlimit:2;">
    <g transform="matrix(1,0,0,1,-187.276,-133.549)">
        <g id="airbrush" transform="matrix(0.441273,0,0,0.441273,265.533,106.337)">
            <rect x="-177.344" y="61.668" width="72.517" height="72.517" style="fill:none;"/>
            <g transform="matrix(2.1587,-1.15102e-15,1.33192e-15,1.88145,-256.162,-96.8909)">
                <path d="M50.716,94.977C52.487,95.395 53.688,96.275 54.518,97.221C56.421,99.39 56.453,102.117 56.453,102.117L56.453,102.168L56.453,119.618C56.453,120.706 55.685,121.589 54.736,121.589L42.006,121.589C41.057,121.589 40.288,120.706 40.288,119.618L40.288,102.168L40.289,102.117C40.289,102.117 40.321,99.39 42.223,97.221C43.053,96.275 44.254,95.395 46.026,94.977C46.025,94.96 46.025,94.944 46.025,94.927L46.025,91.158C46.025,90.185 46.714,89.395 47.562,89.395L49.18,89.395C50.028,89.395 50.717,90.185 50.717,91.158L50.717,94.927C50.717,94.944 50.717,94.96 50.716,94.977ZM53.019,104.439L53.019,102.21L53.018,102.194C53.004,102.014 52.889,100.919 52.097,100.016C51.406,99.228 50.242,98.661 48.371,98.661C46.499,98.661 45.336,99.228 44.644,100.016C43.824,100.952 43.73,102.095 43.723,102.21L43.723,104.439L53.019,104.439Z" style="fill:rgb(54,22,22);"/>
            </g>
            <g transform="matrix(2.03566,-0.968567,0.483842,1.0169,-299.202,31.8947)">
                <path d="M57.826,103.958L55.432,101.678C54.557,100.845 54.185,98.746 54.601,96.994C55.017,95.242 56.066,94.497 56.941,95.33L60.089,98.329C60.145,97.958 60.216,97.59 60.302,97.23C61.236,93.302 63.587,91.63 65.549,93.499C67.511,95.368 68.346,100.074 67.413,104.002C67.059,105.492 66.501,106.657 65.837,107.428C66.532,109.326 66.698,111.909 66.158,114.181C65.375,117.474 63.404,118.876 61.758,117.309C60.308,115.928 59.592,112.698 59.979,109.696C59.708,109.641 59.437,109.494 59.177,109.246C58.159,108.277 57.631,106.076 57.826,103.958Z" style="fill:rgb(54,22,22);"/>
            </g>
        </g>
    </g>
</svg>
