<?xml version="1.0" encoding="UTF-8" standalone="no"?>
<!DOCTYPE svg PUBLIC "-//W3C//DTD SVG 1.1//EN" "http://www.w3.org/Graphics/SVG/1.1/DTD/svg11.dtd">
<svg width="100%" height="100%" viewBox="0 0 32 32" version="1.1" xmlns="http://www.w3.org/2000/svg" xmlns:xlink="http://www.w3.org/1999/xlink" xml:space="preserve" xmlns:serif="http://www.serif.com/" style="fill-rule:evenodd;clip-rule:evenodd;stroke-linejoin:round;stroke-miterlimit:2;">
    <g transform="matrix(1,0,0,1,-263.464,-95.1588)">
        <g id="pen" transform="matrix(0.441273,0,0,0.441273,341.721,67.9462)">
            <rect x="-177.344" y="61.668" width="72.517" height="72.517" style="fill:none;"/>
            <g transform="matrix(0.754015,0.754015,-1.65588,1.65588,-77.3676,-209.33)">
                <path d="M172.184,101.227L172.184,119.721C172.184,120.363 171.744,121.325 170.91,122.333C169.619,123.894 167.474,125.686 167.474,125.686C166.275,126.684 163.972,128.031 161.473,128.027C158.975,128.022 156.682,126.668 155.5,125.666C155.5,125.666 153.37,123.856 152.089,122.309C151.249,121.296 150.814,120.338 150.814,119.721L150.814,101.227C150.814,99.515 153.864,98.126 157.625,98.126L165.373,98.126C169.134,98.126 172.184,99.515 172.184,101.227ZM163.213,123.519C163.394,123.52 163.559,123.472 163.636,123.398C164.955,122.115 165.856,120.721 166.013,119.942C166.018,119.884 165.971,119.828 165.883,119.786C165.796,119.745 165.674,119.721 165.548,119.721C163.97,119.721 159.032,119.721 157.452,119.721C157.324,119.721 157.203,119.744 157.114,119.786C157.026,119.828 156.979,119.884 156.984,119.942C157.15,120.704 158.061,122.104 159.381,123.397C159.458,123.472 159.623,123.519 159.804,123.519C160.545,123.519 162.473,123.519 163.213,123.519Z" style="fill:rgb(54,22,22);"/>
            </g>
        </g>
    </g>
</svg>
