<?xml version="1.0" encoding="UTF-8" standalone="no"?>
<!DOCTYPE svg PUBLIC "-//W3C//DTD SVG 1.1//EN" "http://www.w3.org/Graphics/SVG/1.1/DTD/svg11.dtd">
<svg width="100%" height="100%" viewBox="0 0 32 32" version="1.1" xmlns="http://www.w3.org/2000/svg" xmlns:xlink="http://www.w3.org/1999/xlink" xml:space="preserve" xmlns:serif="http://www.serif.com/" style="fill-rule:evenodd;clip-rule:evenodd;stroke-linejoin:round;stroke-miterlimit:2;">
    <g transform="matrix(1,0,0,1,-222.773,-95.1588)">
        <g id="eraser" transform="matrix(0.441273,0,0,0.441273,301.031,67.9462)">
            <rect x="-177.344" y="61.668" width="72.517" height="72.517" style="fill:none;"/>
            <g transform="matrix(2.39447,0,0,2.39447,-715.299,-166.443)">
                <path d="M234.479,122.178C234.069,122.178 233.675,122.015 233.386,121.725C232.041,120.381 228.168,116.507 228.168,116.507C226.996,115.336 226.996,113.436 228.168,112.265L240.914,99.518C242.086,98.347 243.985,98.347 245.157,99.518L251.449,105.81C252.621,106.982 252.621,108.881 251.449,110.053L242.324,119.178L247.948,119.178C248.776,119.178 249.448,119.85 249.448,120.678C249.448,121.506 248.776,122.178 247.948,122.178L234.479,122.178ZM235.081,119.178L238.081,119.178C238.081,119.178 241.881,115.378 243.169,114.09C243.401,113.858 243.401,113.481 243.169,113.249C242.024,112.104 238.863,108.943 237.719,107.798C237.486,107.566 237.109,107.566 236.877,107.798C235.629,109.046 231.958,112.717 230.71,113.965C230.598,114.077 230.536,114.228 230.536,114.386C230.536,114.544 230.598,114.695 230.71,114.807C231.879,115.976 235.081,119.178 235.081,119.178Z" style="fill:rgb(54,22,22);"/>
            </g>
        </g>
    </g>
</svg>
