<?xml version="1.0" encoding="UTF-8" standalone="no"?>
<!DOCTYPE svg PUBLIC "-//W3C//DTD SVG 1.1//EN" "http://www.w3.org/Graphics/SVG/1.1/DTD/svg11.dtd">
<svg width="100%" height="100%" viewBox="0 0 32 32" version="1.1" xmlns="http://www.w3.org/2000/svg" xmlns:xlink="http://www.w3.org/1999/xlink" xml:space="preserve" xmlns:serif="http://www.serif.com/" style="fill-rule:evenodd;clip-rule:evenodd;stroke-linejoin:round;stroke-miterlimit:2;">
    <g transform="matrix(1,0,0,1,0,-16.0119)">
        <g id="delete" transform="matrix(0.441273,0,0,0.441273,78.2572,-11.2007)">
            <rect x="-177.344" y="61.668" width="72.517" height="72.517" style="fill:none;"/>
            <g transform="matrix(4.43031,0,0,4.20571,-174.831,0.629725)">
                <path d="M1.552,19.653L0.979,19.653C0.555,19.653 0.211,19.291 0.211,18.845C0.211,18.398 0.555,18.036 0.979,18.036L5.082,18.036L5.082,17.445C5.082,16.906 5.286,16.39 5.649,16.01C6.011,15.63 6.502,15.417 7.014,15.42L7.089,15.42L8.071,15.417C8.582,15.416 9.072,15.629 9.433,16.009C9.795,16.388 9.998,16.904 9.998,17.442L9.998,18.036L14.255,18.036C14.679,18.036 15.023,18.398 15.023,18.845C15.023,19.291 14.679,19.653 14.255,19.653L13.682,19.653L12.557,30.392C12.514,30.802 12.186,31.112 11.795,31.112L3.439,31.112C3.048,31.112 2.72,30.802 2.677,30.392L1.552,19.653ZM6.617,18.036L8.464,18.036L8.464,17.442C8.464,17.334 8.423,17.23 8.35,17.153C8.281,17.08 8.188,17.038 8.091,17.034C8.057,17.039 8.022,17.041 7.986,17.041L7.093,17.037C7.09,17.037 7.006,17.036 7.006,17.036C6.903,17.036 6.804,17.079 6.731,17.155C6.658,17.232 6.617,17.336 6.617,17.445L6.617,18.036ZM12.138,19.653L3.096,19.653L4.127,29.496L11.107,29.496L12.138,19.653ZM6.935,28.238C6.956,28.684 6.63,29.063 6.207,29.085C5.784,29.108 5.424,28.764 5.403,28.318L5.083,21.547C5.062,21.101 5.389,20.721 5.812,20.699C6.235,20.677 6.595,21.021 6.616,21.466L6.935,28.238ZM9.678,28.318C9.657,28.764 9.296,29.108 8.873,29.085C8.451,29.063 8.124,28.684 8.145,28.238L8.465,21.466C8.486,21.021 8.846,20.677 9.269,20.699C9.692,20.721 10.018,21.101 9.997,21.547L9.678,28.318Z" style="fill:rgb(54,22,22);"/>
            </g>
        </g>
    </g>
</svg>
