<?xml version="1.0" encoding="UTF-8" standalone="no"?>
<!DOCTYPE svg PUBLIC "-//W3C//DTD SVG 1.1//EN" "http://www.w3.org/Graphics/SVG/1.1/DTD/svg11.dtd">
<svg width="100%" height="100%" viewBox="0 0 32 32" version="1.1" xmlns="http://www.w3.org/2000/svg" xmlns:xlink="http://www.w3.org/1999/xlink" xml:space="preserve" xmlns:serif="http://www.serif.com/" style="fill-rule:evenodd;clip-rule:evenodd;stroke-linejoin:round;stroke-miterlimit:2;">
    <g transform="matrix(1,0,0,1,-186.394,-95.1588)">
        <g id="pipette" transform="matrix(0.441273,0,0,0.441273,264.651,67.9462)">
            <rect x="-177.344" y="61.668" width="72.517" height="72.517" style="fill:none;"/>
            <g transform="matrix(2.68976,0,0,2.68976,-687.992,-188.46)">
                <path d="M205.378,97.333C205.684,102.725 211.921,103.043 211.921,109.486C211.921,114.217 208.08,118.058 203.349,118.058C198.619,118.058 194.778,114.217 194.778,109.486C194.778,102.959 201.171,102.717 201.321,97.118L201.321,96.917C201.321,95.797 202.23,94.888 203.349,94.888C204.469,94.888 205.378,95.797 205.378,96.917L205.378,97.333ZM197.995,107.083C197.265,108.292 196.883,111.009 198.331,112.954C198.783,113.563 199.644,113.689 200.252,113.237C200.86,112.784 200.986,111.924 200.534,111.316C199.84,110.383 199.996,109.082 200.346,108.502C200.737,107.853 200.529,107.008 199.88,106.617C199.231,106.225 198.386,106.434 197.995,107.083Z" style="fill:rgb(54,22,22);"/>
            </g>
        </g>
    </g>
</svg>
