<?xml version="1.0" encoding="UTF-8" standalone="no"?>
<!DOCTYPE svg PUBLIC "-//W3C//DTD SVG 1.1//EN" "http://www.w3.org/Graphics/SVG/1.1/DTD/svg11.dtd">
<svg width="100%" height="100%" viewBox="0 0 32 32" version="1.1" xmlns="http://www.w3.org/2000/svg" xmlns:xlink="http://www.w3.org/1999/xlink" xml:space="preserve" xmlns:serif="http://www.serif.com/" style="fill-rule:evenodd;clip-rule:evenodd;stroke-linejoin:round;stroke-miterlimit:2;">
    <g transform="matrix(1,0,0,1,-71.0598,-95.1588)">
        <g id="zoom-in" serif:id="zoom in" transform="matrix(0.441273,0,0,0.441273,149.317,67.9462)">
            <rect x="-177.344" y="61.668" width="72.517" height="72.517" style="fill:none;"/>
            <g transform="matrix(1.08122,-5.47157e-18,-4.36371e-18,0.933564,-238.918,-8.37641)">
                <path d="M105.5,136.104C105.135,135.681 104.559,135.63 104.142,135.982C99.87,139.589 94.61,141.718 88.924,141.718C74.647,141.718 63.056,128.293 63.056,111.758C63.056,95.222 74.647,81.797 88.924,81.797C103.202,81.797 114.793,95.222 114.793,111.758C114.793,118.343 112.955,124.435 109.84,129.382C109.536,129.865 109.581,130.532 109.946,130.955L118.064,140.357C119.291,141.778 119.291,144.085 118.064,145.506C116.837,146.927 114.845,146.927 113.618,145.506L105.5,136.104ZM88.924,89.08C78.117,89.08 69.344,99.241 69.344,111.758C69.344,124.274 78.117,134.436 88.924,134.436C99.731,134.436 108.505,124.274 108.505,111.758C108.505,99.241 99.731,89.08 88.924,89.08ZM85.781,116.612C85.781,115.942 85.311,115.399 84.733,115.399L79.493,115.399C77.758,115.399 76.349,113.767 76.349,111.758C76.349,109.748 77.758,108.116 79.493,108.116L84.733,108.116C85.311,108.116 85.781,107.573 85.781,106.903L85.781,100.834C85.781,98.825 87.189,97.193 88.924,97.193C90.66,97.193 92.068,98.825 92.068,100.834L92.068,106.903C92.068,107.573 92.538,108.116 93.116,108.116L98.356,108.116C100.091,108.116 101.5,109.748 101.5,111.758C101.5,113.767 100.091,115.399 98.356,115.399L93.116,115.399C92.538,115.399 92.068,115.942 92.068,116.612L92.068,122.681C92.068,124.691 90.66,126.322 88.924,126.322C87.189,126.322 85.781,124.691 85.781,122.681L85.781,116.612Z" style="fill:rgb(54,22,22);"/>
            </g>
        </g>
    </g>
</svg>
