<?xml version="1.0" encoding="UTF-8" standalone="no"?><!DOCTYPE svg PUBLIC "-//W3C//DTD SVG 1.1//EN" "http://www.w3.org/Graphics/SVG/1.1/DTD/svg11.dtd"><svg width="100%" height="100%" viewBox="0 0 32 32" version="1.1" xmlns="http://www.w3.org/2000/svg" xmlns:xlink="http://www.w3.org/1999/xlink" xml:space="preserve" xmlns:serif="http://www.serif.com/" style="fill-rule:evenodd;clip-rule:evenodd;stroke-linejoin:round;stroke-miterlimit:2;"><rect id="light-mode" x="0" y="0" width="32" height="32" style="fill:none;"/><path d="M16,8.37c4.211,-0 7.63,3.419 7.63,7.63c0,4.211 -3.419,7.63 -7.63,7.63c-4.211,0 -7.63,-3.419 -7.63,-7.63c-0,-4.211 3.419,-7.63 7.63,-7.63Zm-0,3.636c-2.205,-0 -3.994,1.789 -3.994,3.994c-0,2.205 1.789,3.994 3.994,3.994c2.205,0 3.994,-1.789 3.994,-3.994c0,-2.205 -1.789,-3.994 -3.994,-3.994Zm10.381,5.708c-1.082,0 -1.928,-0.789 -1.928,-1.714c0,-0.925 0.846,-1.714 1.928,-1.714l2.132,-0c0.946,-0 1.714,0.768 1.714,1.714c0,0.946 -0.768,1.714 -1.714,1.714l-2.132,0Zm-22.894,0c-0.946,0 -1.714,-0.768 -1.714,-1.714c-0,-0.946 0.768,-1.714 1.714,-1.714l2.132,-0c1.082,-0 1.928,0.789 1.928,1.714c-0,0.925 -0.846,1.714 -1.928,1.714l-2.132,0Zm14.227,-12.095c0,1.082 -0.789,1.928 -1.714,1.928c-0.925,-0 -1.714,-0.846 -1.714,-1.928l-0,-2.132c-0,-0.946 0.768,-1.714 1.714,-1.714c0.946,-0 1.714,0.768 1.714,1.714l0,2.132Zm0,22.894c0,0.946 -0.768,1.714 -1.714,1.714c-0.946,0 -1.714,-0.768 -1.714,-1.714l-0,-2.132c-0,-1.082 0.789,-1.928 1.714,-1.928c0.925,0 1.714,0.846 1.714,1.928l0,2.132Zm6.839,-18.642c-0.766,0.766 -1.922,0.806 -2.576,0.152c-0.654,-0.654 -0.614,-1.81 0.152,-2.576l1.507,-1.507c0.669,-0.669 1.755,-0.669 2.424,-0c0.669,0.669 0.669,1.755 0,2.424l-1.507,1.507Zm-16.189,16.189c-0.669,0.669 -1.755,0.669 -2.424,0c-0.669,-0.669 -0.669,-1.755 -0,-2.424l1.507,-1.507c0.766,-0.766 1.922,-0.806 2.576,-0.152c0.654,0.654 0.614,1.81 -0.152,2.576l-1.507,1.507Zm1.507,-18.613c0.766,0.766 0.806,1.922 0.152,2.576c-0.654,0.654 -1.81,0.614 -2.576,-0.152l-1.507,-1.507c-0.669,-0.669 -0.669,-1.755 -0,-2.424c0.669,-0.669 1.755,-0.669 2.424,-0l1.507,1.507Zm16.189,16.189c0.669,0.669 0.669,1.755 0,2.424c-0.669,0.669 -1.755,0.669 -2.424,0l-1.507,-1.507c-0.766,-0.766 -0.806,-1.922 -0.152,-2.576c0.654,-0.654 1.81,-0.614 2.576,0.152l1.507,1.507Z" style="fill:#361616;"/></svg>