<?xml version="1.0" encoding="UTF-8" standalone="no"?><!DOCTYPE svg PUBLIC "-//W3C//DTD SVG 1.1//EN" "http://www.w3.org/Graphics/SVG/1.1/DTD/svg11.dtd"><svg width="100%" height="100%" viewBox="0 0 32 32" version="1.1" xmlns="http://www.w3.org/2000/svg" xmlns:xlink="http://www.w3.org/1999/xlink" xml:space="preserve" xmlns:serif="http://www.serif.com/" style="fill-rule:evenodd;clip-rule:evenodd;stroke-linejoin:round;stroke-miterlimit:2;"><rect id="light-mode" x="0" y="0" width="32" height="32" style="fill:none;"/><path d="M16,9.247c3.727,-0 6.753,3.026 6.753,6.753c0,3.727 -3.026,6.753 -6.753,6.753c-3.727,0 -6.753,-3.026 -6.753,-6.753c-0,-3.727 3.026,-6.753 6.753,-6.753Zm-0,3c-2.071,-0 -3.753,1.682 -3.753,3.753c-0,2.071 1.682,3.753 3.753,3.753c2.071,0 3.753,-1.682 3.753,-3.753c0,-2.071 -1.682,-3.753 -3.753,-3.753Z" style="fill:#361616;"/><g><path d="M23.12,10.647c-0.487,0.488 -1.28,0.488 -1.767,0c-0.488,-0.487 -0.488,-1.28 -0,-1.767l2.538,-2.539c0.488,-0.488 1.28,-0.488 1.768,-0c0.488,0.488 0.488,1.28 0,1.768l-2.539,2.538Z" style="fill:#361616;"/><path d="M8.109,25.659c-0.488,0.488 -1.28,0.488 -1.768,0c-0.488,-0.488 -0.488,-1.28 -0,-1.768l2.539,-2.538c0.487,-0.488 1.28,-0.488 1.767,-0c0.488,0.487 0.488,1.28 0,1.767l-2.538,2.539Z" style="fill:#361616;"/></g><g><path d="M21.353,23.12c-0.488,-0.487 -0.488,-1.28 -0,-1.767c0.487,-0.488 1.28,-0.488 1.767,-0l2.56,2.559c0.487,0.488 0.487,1.28 -0,1.768c-0.488,0.487 -1.28,0.487 -1.768,-0l-2.559,-2.56Z" style="fill:#361616;"/><path d="M6.32,8.088c-0.487,-0.488 -0.487,-1.28 0,-1.768c0.488,-0.487 1.28,-0.487 1.768,0l2.559,2.56c0.488,0.487 0.488,1.28 0,1.767c-0.487,0.488 -1.28,0.488 -1.767,0l-2.56,-2.559Z" style="fill:#361616;"/></g><g><path d="M24.82,17.25c-0.69,-0 -1.25,-0.56 -1.25,-1.25c-0,-0.69 0.56,-1.25 1.25,-1.25l3.59,0c0.69,-0 1.25,0.56 1.25,1.25c0,0.69 -0.56,1.25 -1.25,1.25l-3.59,0Z" style="fill:#361616;"/><path d="M3.59,17.25c-0.69,-0 -1.25,-0.56 -1.25,-1.25c-0,-0.69 0.56,-1.25 1.25,-1.25l3.59,0c0.69,-0 1.25,0.56 1.25,1.25c0,0.69 -0.56,1.25 -1.25,1.25l-3.59,0Z" style="fill:#361616;"/></g><g><path d="M14.75,24.82c-0,-0.69 0.56,-1.25 1.25,-1.25c0.69,-0 1.25,0.56 1.25,1.25l-0,3.619c-0,0.69 -0.56,1.25 -1.25,1.25c-0.69,-0 -1.25,-0.56 -1.25,-1.25l-0,-3.619Z" style="fill:#361616;"/><path d="M14.75,3.561c-0,-0.69 0.56,-1.25 1.25,-1.25c0.69,0 1.25,0.56 1.25,1.25l-0,3.619c-0,0.69 -0.56,1.25 -1.25,1.25c-0.69,0 -1.25,-0.56 -1.25,-1.25l-0,-3.619Z" style="fill:#361616;"/></g></svg>