<?xml version="1.0" encoding="UTF-8" standalone="no"?>
<!DOCTYPE svg PUBLIC "-//W3C//DTD SVG 1.1//EN" "http://www.w3.org/Graphics/SVG/1.1/DTD/svg11.dtd">
<svg width="100%" height="100%" viewBox="0 0 32 32" version="1.1" xmlns="http://www.w3.org/2000/svg" xmlns:xlink="http://www.w3.org/1999/xlink" xml:space="preserve" xmlns:serif="http://www.serif.com/" style="fill-rule:evenodd;clip-rule:evenodd;stroke-linejoin:round;stroke-miterlimit:2;">
    <g transform="matrix(1,0,0,1,-0.324642,-57.5642)">
        <g id="tone" transform="matrix(0.441273,0,0,0.441273,78.5819,30.3516)">
            <rect x="-177.344" y="61.668" width="72.517" height="72.517" style="fill:none;"/>
            <g transform="matrix(2.90419,0,0,2.90419,-704.057,8.94144)">
                <path d="M190.332,21.488C190.589,21.488 190.797,21.696 190.797,21.953L190.797,27.59L185.161,27.59C184.904,27.59 184.696,27.381 184.696,27.124L184.696,22.78C184.696,22.437 184.832,22.109 185.074,21.866C185.316,21.624 185.645,21.488 185.988,21.488L190.332,21.488Z" style="fill:rgb(54,22,22);"/>
            </g>
            <g transform="matrix(2.90419,0,0,2.90419,-704.057,44.3829)">
                <path d="M190.797,21.488L190.797,27.124C190.797,27.381 190.589,27.59 190.332,27.59L185.988,27.59C185.645,27.59 185.316,27.453 185.074,27.211C184.832,26.969 184.696,26.64 184.696,26.298C184.696,24.938 184.696,22.87 184.696,21.953C184.696,21.696 184.904,21.488 185.161,21.488L190.797,21.488Z" style="fill:rgb(54,22,22);"/>
            </g>
            <g transform="matrix(2.90419,0,0,2.90419,-686.337,26.6622)">
                <rect x="184.696" y="21.488" width="6.102" height="6.102" style="fill:rgb(54,22,22);"/>
            </g>
            <g transform="matrix(2.90419,0,0,2.90419,-668.616,8.94144)">
                <path d="M189.505,21.488C189.848,21.488 190.177,21.624 190.419,21.866C190.661,22.109 190.797,22.437 190.797,22.78C190.797,24.14 190.797,26.208 190.797,27.124C190.797,27.381 190.589,27.59 190.332,27.59L184.696,27.59L184.696,21.953C184.696,21.696 184.904,21.488 185.161,21.488L189.505,21.488Z" style="fill:rgb(54,22,22);"/>
            </g>
            <g transform="matrix(2.90419,0,0,2.90419,-668.616,44.3829)">
                <path d="M190.332,21.488C190.589,21.488 190.797,21.696 190.797,21.953L190.797,26.298C190.797,26.64 190.661,26.969 190.419,27.211C190.177,27.453 189.848,27.59 189.505,27.59C188.145,27.59 186.077,27.59 185.161,27.59C184.904,27.59 184.696,27.381 184.696,27.124L184.696,21.488L190.332,21.488Z" style="fill:rgb(54,22,22);"/>
            </g>
        </g>
    </g>
</svg>
