<?xml version="1.0" encoding="UTF-8" standalone="no"?>
<!DOCTYPE svg PUBLIC "-//W3C//DTD SVG 1.1//EN" "http://www.w3.org/Graphics/SVG/1.1/DTD/svg11.dtd">
<svg width="100%" height="100%" viewBox="0 0 32 32" version="1.1" xmlns="http://www.w3.org/2000/svg" xmlns:xlink="http://www.w3.org/1999/xlink" xml:space="preserve" xmlns:serif="http://www.serif.com/" style="fill-rule:evenodd;clip-rule:evenodd;stroke-linejoin:round;stroke-miterlimit:2;">
    <g transform="matrix(1,0,0,1,-142.262,-16.0119)">
        <g id="down" transform="matrix(0.441273,0,0,0.441273,220.52,-11.2007)">
            <rect x="-177.344" y="61.668" width="72.517" height="72.517" style="fill:none;"/>
            <g transform="matrix(9.78259e-16,-4.0992,9.9636,3.95568e-15,-426.114,351.033)">
                <path d="M65.315,30.518C65.753,30.694 65.762,30.982 65.337,31.162C64.911,31.342 64.211,31.346 63.773,31.171L58.175,28.93C57.961,28.844 57.841,28.727 57.841,28.604C57.841,28.481 57.961,28.364 58.175,28.278L63.773,26.037C64.211,25.862 64.911,25.866 65.337,26.046C65.762,26.226 65.753,26.514 65.315,26.689L60.532,28.604L65.315,30.518Z" style="fill:rgb(54,22,22);"/>
            </g>
        </g>
    </g>
</svg>
