<?xml version="1.0" encoding="UTF-8" standalone="no"?>
<!DOCTYPE svg PUBLIC "-//W3C//DTD SVG 1.1//EN" "http://www.w3.org/Graphics/SVG/1.1/DTD/svg11.dtd">
<svg width="100%" height="100%" viewBox="0 0 32 32" version="1.1" xmlns="http://www.w3.org/2000/svg" xmlns:xlink="http://www.w3.org/1999/xlink" xml:space="preserve" xmlns:serif="http://www.serif.com/" style="fill-rule:evenodd;clip-rule:evenodd;stroke-linejoin:round;stroke-miterlimit:2;">
    <g transform="matrix(1,0,0,1,-145.972,-95.1588)">
        <g id="pipette" transform="matrix(0.441273,0,0,0.441273,224.229,67.9462)">
            <rect x="-177.344" y="61.668" width="72.517" height="72.517" style="fill:none;"/>
            <g transform="matrix(0.705818,0.705818,-1.20919,1.20919,-124.264,-144.919)">
                <path d="M166.04,124.98L166.04,127.528C166.04,128.991 164.005,130.179 161.499,130.179C158.993,130.179 156.958,128.991 156.958,127.528L156.958,124.98L155.51,124.578L153.58,123.686L152.446,122.877L151.553,121.908L150.996,120.831L150.814,119.721L150.814,101.227C150.814,101.207 150.814,101.187 150.815,101.167L147.131,101.167C144.625,101.167 142.59,99.98 142.59,98.517C142.59,97.054 144.625,95.867 147.131,95.867L153.717,95.867C152.457,94.905 151.707,93.702 151.707,92.399L151.707,88.831C151.707,85.677 156.095,83.116 161.499,83.116C166.903,83.116 171.29,85.677 171.29,88.831L171.29,92.399C171.29,93.702 170.541,94.905 169.281,95.867L175.867,95.867C178.373,95.867 180.408,97.054 180.408,98.517C180.408,99.98 178.373,101.167 175.867,101.167L172.183,101.167C172.183,101.187 172.184,101.207 172.184,101.227L172.184,119.721L172.001,120.831L171.445,121.908L170.552,122.877L169.418,123.686L167.487,124.578L166.04,124.98ZM165.373,101.227L157.625,101.227L157.625,119.721C157.625,122.168 165.373,122.168 165.373,119.721L165.373,101.227Z" style="fill:rgb(54,22,22);"/>
            </g>
        </g>
    </g>
</svg>
