<?xml version="1.0" encoding="UTF-8" standalone="no"?>
<!DOCTYPE svg PUBLIC "-//W3C//DTD SVG 1.1//EN" "http://www.w3.org/Graphics/SVG/1.1/DTD/svg11.dtd">
<svg width="100%" height="100%" viewBox="0 0 32 32" version="1.1" xmlns="http://www.w3.org/2000/svg" xmlns:xlink="http://www.w3.org/1999/xlink" xml:space="preserve" xmlns:serif="http://www.serif.com/" style="fill-rule:evenodd;clip-rule:evenodd;stroke-linejoin:round;stroke-miterlimit:2;">
    <g transform="matrix(1,0,0,1,-222.985,-133.549)">
        <g id="fill-bucket" serif:id="fill bucket" transform="matrix(0.441273,0,0,0.441273,301.242,106.337)">
            <rect x="-177.344" y="61.668" width="72.517" height="72.517" style="fill:none;"/>
            <g transform="matrix(1.05882,0,0,1.05882,-332.769,5.11208)">
                <path d="M205.378,97.333C205.684,102.725 211.921,103.043 211.921,109.486C211.921,114.217 208.08,118.058 203.349,118.058C198.619,118.058 194.778,114.217 194.778,109.486C194.778,102.959 201.171,102.717 201.321,97.118L201.321,96.917C201.321,95.797 202.23,94.888 203.349,94.888C204.469,94.888 205.378,95.797 205.378,96.917L205.378,97.333Z" style="fill:rgb(54,22,22);"/>
            </g>
            <g transform="matrix(1.30734,1.30734,-1.72001,1.72001,-222.815,-441.891)">
                <path d="M226.947,143.091C225.1,142.284 224.691,140.9 224.663,140.214C224.55,137.473 224.663,126.14 224.663,126.14C224.721,125.435 224.731,123.886 227.191,122.894C228.961,122.322 232.154,121.681 236.171,121.681C240.187,121.681 243.664,122.17 245.394,122.808C245.424,122.819 245.46,122.847 245.516,122.867C247.723,123.695 248.159,124.765 248.159,125.71L248.159,140.214C248.114,141.563 246.896,142.495 245.394,143.091C243.689,143.768 240.187,144.219 236.171,144.219C232.154,144.219 228.775,143.891 226.947,143.091ZM236.343,124.509C232.171,124.509 228.785,125.28 228.785,126.229C228.785,127.178 232.171,127.948 236.343,127.948C240.515,127.948 243.901,127.178 243.901,126.229C243.901,125.28 240.515,124.509 236.343,124.509Z" style="fill:rgb(54,22,22);"/>
            </g>
        </g>
    </g>
</svg>
