<?xml version="1.0" encoding="UTF-8" standalone="no"?>
<!DOCTYPE svg PUBLIC "-//W3C//DTD SVG 1.1//EN" "http://www.w3.org/Graphics/SVG/1.1/DTD/svg11.dtd">
<svg width="100%" height="100%" viewBox="0 0 10 10" version="1.1" xmlns="http://www.w3.org/2000/svg" xmlns:xlink="http://www.w3.org/1999/xlink" xml:space="preserve" xmlns:serif="http://www.serif.com/" style="fill-rule:evenodd;clip-rule:evenodd;stroke-linejoin:round;stroke-miterlimit:2;">
    <g id="tip-pencil" transform="matrix(0.137898,0,0,0.137898,24.4554,-8.50394)">
        <rect x="-177.344" y="61.668" width="72.517" height="72.517" style="fill:none;"/>
        <clipPath id="_clip1">
            <rect x="-177.344" y="61.668" width="72.517" height="72.517"/>
        </clipPath>
        <g clip-path="url(#_clip1)">
            <g transform="matrix(20.4999,0,0,13.4656,-190.78,51.1383)">
                <path d="M0.655,4.552L0.655,2.398L1.009,2.398L1.009,1.321L1.717,1.321L1.717,0.782L3.132,0.782L3.132,1.321L3.839,1.321L3.839,2.398L4.193,2.398L4.193,4.552L3.839,4.552L3.839,5.629L3.132,5.629L3.132,6.167L1.717,6.167L1.717,5.629L1.009,5.629L1.009,4.552L0.655,4.552Z" style="fill:rgb(54,22,22);"/>
            </g>
        </g>
    </g>
</svg>
